<?xml version="1.0" encoding="utf-8"?>
<!-- Generator: Adobe Illustrator 16.0.3, SVG Export Plug-In . SVG Version: 6.00 Build 0)  -->
<!DOCTYPE svg PUBLIC "-//W3C//DTD SVG 1.1//EN" "http://www.w3.org/Graphics/SVG/1.1/DTD/svg11.dtd">
<svg version="1.1" id="Layer_1" xmlns="http://www.w3.org/2000/svg" xmlns:xlink="http://www.w3.org/1999/xlink" x="0px" y="0px"
	 width="2899.638px" height="511.936px" viewBox="0 0 2899.638 511.936" enable-background="new 0 0 2899.638 511.936"
	 xml:space="preserve">
<g>
	<path fill-rule="evenodd" clip-rule="evenodd" fill="#EB7936" d="M156.627,22.262c7.918-4.764,16.781-7.233,25.451-9.989
		c18.988-6.035,38.416-10.12,58.366-11.365c2.955-1.106,6.168,0.457,9.1-0.886c7.333,0,14.665,0,21.997,0
		c0.777,0.768,2.02,0.429,2.807,1.18c18.277,18.681,28.263,40.589,27.707,67.227c-0.388,18.594-5.931,35.279-15.408,50.951
		c-1.046,1.731-2.016,3.499-4.299,3.819c-9.767,0.545-19.072,4.077-28.789,4.66c-8.87,0.532-17.589,2.939-26.557,2.071
		c-4.38,0.275-8.728-0.893-13.146-0.124c-1.995,0.347-3.927-0.243-4.642-2.595c4.152-7.937,8.289-15.827,10.046-24.797
		c5.808-29.646-10.678-60.896-38.503-72.71c-6.481-2.752-13.169-4.582-20.159-5.401C159.093,24.126,157.089,24.599,156.627,22.262z"
		/>
	<path fill-rule="evenodd" clip-rule="evenodd" fill="#F3B794" d="M249.544,0.021c-2.875,1.925-6.053,0.725-9.1,0.886
		c0.074-0.29,0.107-0.586,0.101-0.886C243.545,0.021,246.545,0.021,249.544,0.021z"/>
	<path fill-rule="evenodd" clip-rule="evenodd" fill="#F3B693" d="M273.559,1.174c-0.672-0.385-1.345-0.769-2.018-1.152
		c2.667,0,5.333,0,7.999,0c-0.005,0.301,0.026,0.598,0.094,0.891C277.69,2.868,275.638,2.339,273.559,1.174z"/>
	<path fill-rule="evenodd" clip-rule="evenodd" fill="#E97431" d="M273.559,1.174c2.025-0.088,4.05-0.175,6.075-0.262
		c19.837,1.494,39.265,5.233,58.207,11.237c32.749,10.381,62.273,26.563,88.435,48.996c24.143,20.702,43.867,44.834,59.142,72.706
		c8.906,16.25,15.763,33.294,20.822,51.091c-3.649-0.227-4.889-3.703-7.4-5.469c-4.611-4.671-9.261-9.302-13.938-13.905
		c-5.58-5.697-11.259-11.293-16.911-16.919c-2.402-2.503-4.857-4.951-7.383-7.335c-2.075-2.235-4.69-4.077-5.334-7.353
		c-2.865-13.265-9.315-17.616-22.835-15.881c-5.911,0.758-11.919,0.862-17.87,1.146c-13.59,0.65-27.135,2.657-40.7,2.452
		c-7.475-0.113-14.842,0.796-22.28,0.818c-6.375,0.02-12.703,1.773-19.187,2.228c-11.916,0.834-23.796,1.887-35.751,1.55
		c-3.381-0.459-6.682-1.416-10.185-1.206c-1.915,0.115-4.057-0.209-3.925-3.063c4.888-4.396,7.153-10.465,9.818-16.155
		c8.555-18.269,10.657-37.666,6.883-57.227c-2.982-15.456-10.112-29.432-20.871-41.257C276.601,5.423,274.685,3.609,273.559,1.174z"
		/>
	<path fill-rule="evenodd" clip-rule="evenodd" fill="#CA6C30" d="M461.531,140.977c2.719,1.958,5.058,4.297,7.013,7.019
		c-0.135,0.309-0.257,0.688-0.528,0.829c-12.559,6.501-15.787,18.771-16.656,30.902c-0.864,12.066-1.008,24.565,2.584,36.49
		c1.654,5.492,5.452,9.82,9.207,14.049c4.529,5.101,9.006,10.241,13.314,15.53c2.327,2.857,4.964,5.333,8.449,6.83
		c2.817,1.211,5.117,3.33,6.714,5.83c4.568,7.149,11.616,12.25,15.899,19.604c1.78,3.058,4.877,4.995,6.814,7.926
		c-1.06,12.236-3.65,24.18-6.777,36.031c-7.465,28.29-19.499,54.478-36.018,78.61c-7.756,11.332-16.472,21.843-25.905,31.854
		c-19.333,20.522-41.688,36.932-66.352,50.358c-0.844,0.46-1.838,0.643-2.761,0.954c-1.222-2.531,0.88-3.534,2.258-4.83
		c12.235-11.504,24.668-22.811,34.582-36.523c4.512-6.241,10.954-10.686,15.814-16.636c1.528-1.871,3.018-3.513,2.564-6.148
		c-0.233-1.355,0.05-2.73,0.951-3.777c2.066-2.398,2.025-4.706,0.172-7.213c-1.633-2.209-1.705-4.688-0.47-7.093
		c1.492-2.903,0.462-5.063-1.661-7.104c-3.017-2.898-5.576-6.177-7.7-9.786c-1.576-2.675-1.912-5.286,0.333-7.824
		c1.01-1.141,1.817-2.484,1.777-4.038c-0.106-4.1,1.741-7.335,4.157-10.43c2.189-2.804,2.507-5.279-1.309-7.252
		c-2.542-1.314-4.156-3.724-5.703-6.155c-2.902-4.56-6.412-8.28-11.997-9.866c-4.783-1.358-9.522-3.041-14.073-5.124
		c-2.057-0.941-4.875-1.378-5.111-4.166c-0.257-3.016,2.008-4.795,4.381-6.159c3.493-2.009,6.403-4.723,9.499-7.249
		c5.318-4.338,9.982-9.115,14.103-14.657c3.498-4.705,9.078-7.205,14.182-10.005c11.38-6.241,22.127-13.628,34.073-18.847
		c0.772-0.338,1.714-0.764,1.792-1.605c0.359-3.878,3.058-5.619,6.101-7.229c2.24-1.186,2.213-2.841,0.171-4.225
		c-4.851-3.289-7.254-8.488-10.406-13.102c-0.563-0.823-0.932-1.829-1.777-2.378c-6.825-4.436-9.313-11.818-12.669-18.602
		c-0.667-1.35-1.178-2.854-2.271-3.851c-4.774-4.351-5.26-9.52-3.792-15.499c1.396-5.687,1.193-11.664,0.81-17.41
		c-0.434-6.503,0.454-12.91,2.529-18.627c2.102-5.789,2.633-12.335,6.85-17.382C457.667,149.437,458.071,144.322,461.531,140.977z"
		/>
	<path fill-rule="evenodd" clip-rule="evenodd" fill="#EB7936" d="M16.462,178.952c9.203-29.405,23.228-56.218,42.207-80.568
		c8.64-11.086,18.278-21.14,28.077-31.117c1.44-1.466,3.173-2.265,4.869-3.227c3.382,1.504,0.887,3.679,0.392,5.32
		c-6.845,22.71-3.321,43.647,11.69,61.971c13.764,16.8,31.848,25.197,53.844,24.388c2.481,0.261,4.567,1.43,3.576,4.107
		c-2.458,6.637-1.355,13.771-3.269,20.443c-1.891,2.778,0.475,6.099-1.117,8.919c-4.297,3.526-5.178,8.837-6.768,13.647
		c-1.685,5.096-4.796,7.731-9.887,9.366c-16.584,5.326-33.468,8.766-50.901,8.696c-23.011-0.091-44.378-5.834-63.174-19.656
		c-2.288-1.684-4.26-3.707-6.263-5.704c-2.542-2.535-3.646-5.23-0.948-8.287c1.254-1.42,1.118-2.602-0.069-3.921
		C17.596,182.078,16.768,180.643,16.462,178.952z"/>
	<path fill-rule="evenodd" clip-rule="evenodd" fill="#CA6C30" d="M343.508,497.791c-3.248,1.379-6.412,3.023-10.054,3.142
		c-3.025,1.764-5.337-1.667-8.478-1.063c-2.443,0.47-5.222,0.043-7.856,0.052c-4.945,0.016-8.604-3.691-12.83-5.721
		c-2.145-1.029,0.06-2.75,1.096-4.41c-3.725-0.847-6.893-2.466-9.64-4.902c-1.422-1.263-3.286-1.611-5.152-1.575
		c-15.031,0.293-29.667-3.443-44.596-4.463c-6.439-0.439-13.229-1.398-19.462-3.979c-2.056-0.851-4.324-1.129-6.347-0.191
		c-7.012,3.249-12.504,0.217-17.882-3.91c-11.13-8.539-20.695-18.717-30.472-28.691c-1.585-1.617-2.778-5.721-6.528-2.283
		c-0.75,0.688-1.808-0.63-2.18-1.521c-0.953-2.284-2.087-4.594-0.892-7.165c8.486,1.309,17.204-0.662,25.597,1.728
		c1.962,0.559,2.75-0.238,3.441-1.781c0.915-2.041,0.948-4.192,1.003-6.365c0.164-6.422,1.978-9.495,7.881-11.119
		c3.905-1.074,7.125-2.917,9.663-5.771c5.004-5.626,11.508-9.641,16.493-15.134c8.926-9.836,19.923-17.676,27.497-28.79
		c3.273-4.802,7.696-2.427,11.833-1.679c1.313,0.377,2.273,1.219,3.054,2.299c3.139,4.05,3.321,8.43,1.771,13.181
		c-2.987,9.154-6.574,18.102-9.368,27.32c-0.915,3.015-2.159,6.008-2.014,9.2c0.416,9.181,5.064,15.332,15.869,14.998
		c3.96,0.622,5.762,4.097,8.392,6.451c2.318,2.074,4.434,4.374,6.647,6.564c4.852,5.065,9.915,9.926,14.837,14.924
		c1.05,1.113,2.113,2.217,3.215,3.282c0.786,0.781,1.576,1.557,2.381,2.318c5.552,5.518,11.069,11.067,16.633,16.567
		c3.925,4.072,7.975,8.02,11.981,12.013C340.534,493.47,343.612,494.537,343.508,497.791z"/>
	<path fill-rule="evenodd" clip-rule="evenodd" fill="#E97431" d="M16.462,178.952c2.087,0.76,2.315,3.181,3.93,4.38
		c1.886,1.401,2.1,2.792-0.042,4.257c-3.285,2.244-2.384,4.336,0.043,6.796c13.52,13.704,30.589,20.291,48.953,23.477
		c25.119,4.357,49.542,0.212,73.415-8.026c6.246-2.155,5.589-8.381,7.71-12.907c1.487-3.172,1.635-7.115,6.082-7.932
		c0.174,0.184,0.349,0.368,0.526,0.552c0.352,0.708,0.462,1.46,0.42,2.243c-0.439,2.301-0.772,4.646-2.467,6.471
		c-1.004,0.974-1.519,2.28-1.737,3.543c-2.49,14.38-10.916,27.054-11.81,41.946c-0.311,5.167-4.763,6.803-9.353,7.38
		c-12.539,1.578-25.091,3.193-37.525,5.351c-14.65,2.541-29.463,2.341-44.151,3.904c-8.955,0.954-17.144,3.402-23.352,10.783
		c-2.837,3.374-7.135,5.397-10.646,8.2c-1.757,1.402-3.608,1.563-5.523,0.284c-1.792-1.197-3.81-2.068-5.313-3.683
		c-1.733-10.196-1.232-20.489-0.907-30.725c0.585-18.408,3.671-36.51,8.035-54.382C13.736,186.834,14.496,182.693,16.462,178.952z"
		/>
	<path fill-rule="evenodd" clip-rule="evenodd" fill="#CE6F30" d="M162.555,430.968c0.575,2.704,1.15,5.409,1.725,8.114
		c1.202-4.108,2.284-4.646,5.239-1.341c5.564,6.229,11.462,12.172,17.417,18.035c6.825,6.721,14.239,12.76,22.282,17.995
		c1.76,1.146,3.953,1.869,5.706,1.034c5.807-2.766,11.218-1.563,17.086,0.086c11.604,3.26,23.744,3.443,35.645,5.021
		c8.107,1.074,16.186,2.646,24.454,2.099c2.484-0.165,4.377,1.332,6.042,3.055c1.544,1.598,3.332,2.705,5.624,2.891
		c1.709,0.14,4.174-0.553,4.3,2.094c0.107,2.262-2.605,1.453-3.825,2.44c0.5,1.705,1.742,2.465,3.353,2.42
		c2.317-0.065,4.14,0.375,5.406,2.652c1.07,1.926,3.475,1.938,4.913,1.152c2.143-1.171,3.884-0.066,5.688-0.158
		c3.704-0.187,6.662,1.238,9.847,2.376c-1.398,1.165-3.11,1.371-4.821,1.581c-0.858-0.545-1.682-0.907-2.181,0.418
		c-11.393,3.583-23.009,6.026-34.941,6.859c-2.322-0.497-4.045-2.061-4.784-4.061c-2.971-8.031-9.963-10.372-17.138-11.91
		c-7.108-1.522-14.261-2.92-21.521-3.862c-6.19-0.804-12.168-3.263-18.244-4.977c-1.114-0.314-2.182-1.106-3.334-0.944
		c-8.179,1.146-14.203-3.688-20.75-7.224c-6.147-3.321-12.027-7.07-18.041-10.596c-6.495-3.806-13.684-3.762-20.596-0.772
		c-3.18,1.375-6.24,1.147-9.249,0.229c-2.952-0.901-5.757-1.14-8.817-0.677c-9.479,1.434-17.471-0.864-24.287-8.31
		c-9.875-10.784-20.836-20.531-31.049-31.025c-9.239-9.493-10.677-19.764-6.106-31.542c0.674-1.737,1.363-3.447,0.88-5.317
		c-0.76-2.945,0.746-4.733,2.951-6.261c2.485-1.721,5.145-3.055,8.038-3.949c0.913-0.282,2.095-0.563,1.977-1.836
		c-0.091-0.98-1.142-1.316-1.911-1.272c-6.465,0.363-9.66-4.005-12.112-8.82c-2.829-5.557-2.992-11.597-1.019-17.505
		c1.206-3.612,2.811-7.108,5-10.282c3.555,0.718,3.051,3.232,2.395,5.667c-0.812,3.011-2.563,5.728-2.847,8.907
		c-0.662,3.443,1.275,5.611,3.703,7.531c0.324,2.046,2.136,2.963,3.338,4.346c1.03,1.073,2.074,2.132,3.146,3.163
		c1.337,1.378,2.702,2.729,4.092,4.055c2.289,2.331,4.604,4.635,6.948,6.91c2.628,2.702,5.305,5.354,8.004,7.984
		c3.3,3.381,6.653,6.709,10.034,10.01c4.988,5.054,9.996,10.087,15.091,15.032c5.39,4.431,10.146,9.528,15.121,14.393
		C161.556,427.979,163.187,428.911,162.555,430.968z"/>
	<path fill-rule="evenodd" clip-rule="evenodd" fill="#C46B30" d="M343.508,497.791c-1.658-1.944-3.316-3.888-4.975-5.831
		c2.875-2.873,6.83-4.884,7.428-9.566c0.105-0.82,1.099-1.74,1.763-1.528c4.217,1.348,4.75-1.392,5.292-4.401
		c0.248-1.374,1.249-2.632,2.582-2.813c6.112-0.826,8.88-5.884,11.82-10.032c4.597-6.482,11.088-10.865,16.416-16.505
		c6.149-6.51,12.396-12.964,18.824-19.224c2.646-2.577,4.012-6.045,5.308-9.523c1.567-4.206,1.498-8.122-0.953-11.932
		c-3.015-4.687-3.503-9.196-2.193-15.026c1.594-7.089,0.376-14.771-1.357-22.055c-0.347-1.454-0.989-2.85-1.208-4.327
		c-1.447-9.751-7.795-16.313-14.834-22.225c-8.78-7.372-8.845-11.135,0.22-18.232c4.095-3.205,8.811-5.358,13.168-8.116
		c5.561-3.519,9.914-7.724,10.321-14.897c0.198-3.496,2.769-5.771,5.751-7.012c6.25-2.601,10.202-7.26,12.997-13.17
		c1.494-3.158,3.628-5.983,5.217-9.033c2.377-4.567,6.129-5.817,10.612-5.971c6.11-0.208,6.867-1.224,8.137-7.416
		c0.788-3.846,4.426-7.489-0.656-10.867c-0.127-7.794-6.447-12.547-9.502-18.916c-2.603-5.426-2.63-10.998-2.319-16.37
		c0.222-3.842,1.496-7.803,1.183-11.766c-0.39-4.939,2.492-9.688,0.667-14.662c0.628-10.717,3.364-21.068,5.385-31.542
		c2.158-6.596,3.817-13.359,6.487-19.795c0.467-0.368,0.947-0.382,1.436-0.044c1.669,1.995,3.338,3.989,5.008,5.983
		c-1.829,5.498-3.823,10.919-7.792,15.318c-0.974,1.079-1.195,2.291-1.243,3.666c-0.045,1.313,0.096,2.855-0.524,3.889
		c-5.45,9.086-5.405,19.154-5.438,29.211c-0.021,6.291,0.017,12.574-1.794,18.69c-0.402,1.357-0.279,2.83,0.585,3.827
		c4.081,4.706,6.365,10.47,9.502,15.727c0.589,0.987,1.074,2.037,1.658,3.027c1.874,3.18,2.939,6.681,6.986,8.501
		c3.722,1.674,4.379,6.54,6.937,9.703c1.953,2.418,3.51,4.966,6.292,6.561c3.317,1.9,3.281,3.908-0.026,5.795
		c-2.979,1.7-7.353,2.298-5.643,7.564c0.082,0.253-1.103,1.108-1.813,1.399c-16.826,6.888-31.825,17.042-47.187,26.524
		c-2.005,1.237-3.427,3.568-4.838,5.59c-5.402,7.739-13.073,12.914-20.479,18.398c-0.928,0.688-2.101,1.104-2.888,1.912
		c-2.209,2.269-3.08,4.38,0.932,5.832c5.771,2.09,11.348,4.869,17.256,6.385c5.817,1.493,8.622,5.751,11.461,10.111
		c1.675,2.574,3.389,5.285,6.222,6.123c4.59,1.357,3.308,4.25,1.849,6.49c-2.726,4.188-6.044,7.981-5.138,13.496
		c0.024,0.146-0.044,0.363-0.149,0.465c-7.59,7.333,0.325,11.423,3.49,16.466c0.604,0.961,1.563,1.731,2.451,2.48
		c2.636,2.222,3.624,4.666,1.366,7.754c-2.163,2.958-0.479,5.423,1.317,7.623c1.814,2.224,1.992,4.036-0.314,5.954
		c-0.874,0.727-2.233,1.696-1.827,2.798c2.639,7.171-3.897,9.477-7.213,13.1c-5.264,5.751-11.1,10.961-15.413,17.561
		c-1.17,1.79-2.512,3.548-4.086,4.979c-9.683,8.808-17.484,19.559-28.192,27.306c-0.845,0.611-1.25,1.536-1.311,2.591
		C365.945,489.459,355.03,494.341,343.508,497.791z"/>
	<path fill-rule="evenodd" clip-rule="evenodd" fill="#ED7D3B" d="M157.556,157.002c-23.93,0.899-42.984-8.696-57.048-27.682
		c-14.031-18.94-16.769-39.92-8.99-62.214c0.355-1.021,1.488-1.998,0.097-3.066c7.67-8.257,17.036-14.343,26.195-20.742
		c11.658-8.146,24.38-14.326,36.936-20.834c0.522-0.271,1.25-0.145,1.882-0.202c7.75,1.505,15.601,2.305,23.002,5.571
		c22.106,9.758,36.063,26.198,40.834,49.864c3.379,16.763,0.492,32.688-8.884,47.211c-0.518,0.802-1.346,1.403-2.03,2.097
		c-0.602,0.616-1.336,1.095-2.18,1.1c-5.356,0.029-10.585,0.931-15.816,1.995c-2.098,0.426-4.628,0.492-5.788-1.806
		c-1.135-2.248,0.945-3.675,2.253-5.065c7.041-7.491,11.268-16.262,13.283-26.378c3.335-16.739-6.96-38.058-22.474-47.269
		c-30.655-18.199-66.174,2.457-71.089,33.787c-3.09,19.695,9.176,45.083,34.199,52.026c5.751,1.597,11.629,2.988,17.735,1.61
		c1.783-0.402,3.841-0.481,5.076,1.201c1.274,1.736,0.42,3.588-0.651,5.104c-2.16,3.061-3.474,6.436-4.197,10.068
		C159.595,154.915,159.035,156.245,157.556,157.002z"/>
	<path fill-rule="evenodd" clip-rule="evenodd" fill="#D66F30" d="M279.457,510.932c-2.561,1.27-5.344,0.268-7.979,0.781
		c-1.971-0.391-3.939-0.523-5.898,0.078c-30.053,0.995-59.155-4.085-87.663-13.376c-14.101-4.596-27.585-10.646-40.505-17.706
		c-13.727-7.501-26.765-16.19-38.898-26.26c-8.254-6.853-16.029-14.149-23.577-21.704c-6.715-6.721-12.575-14.221-18.38-21.741
		c-0.535-0.72-0.768-1.647-0.366-2.342c1.789-3.09,2.033-6.074-0.16-9.443c-4.167-6.404-3.314-14.16-5.987-20.939
		c-0.172-0.437-0.08-1.035,0.175-1.461c3.932-6.556,0.436-13.006,0.261-19.55c-0.156-5.824-2.016-11.254-2.008-16.865
		c0.009-6.865,3.84-12.694,7.428-18.235c1.738-2.685,5.082-4.292,8.722-4.047c1.86,0.125,3.64-0.323,5.442-0.63
		c0.334-0.033,0.748-0.125,0.979,0.054c7.728,5.962,15.058,12.315,20.229,20.771c-0.435,2.161-1.562,3.97-2.702,5.834
		c-4.408,7.214-6.761,14.833-3.313,23.142c1.102,2.656-0.232,3.98-1.932,5.499c-4.763,4.254-8.485,8.95-10.249,15.492
		c-2.47,9.161-0.511,17.045,4.492,24.57c1.31,1.97,2.13,4.13,3.072,6.256c1.355,3.056,2.754,6.199,5.162,8.492
		c5.721,5.449,9.914,12.064,14.554,18.336c2.229,3.011,5.005,5.47,8.022,7.424c8.188,5.303,15.228,12.063,23.674,17.171
		c7.498,4.534,15.289,6.533,23.423,8.605c4.235,1.08,7.394-0.044,10.762-2.118c3.571-2.2,7.021-5.577,11.705-2.278
		c5.519-2.749,8.127,2.74,12.169,4.172c11.853,4.2,22.64,11.054,35.147,13.658c6.185,1.288,12.564,1.886,18.552,3.532
		c7.927,2.181,16.716,2.713,22.981,9.529C270.009,509.134,275.358,508.82,279.457,510.932z"/>
	<path fill-rule="evenodd" clip-rule="evenodd" fill="#D16E30" d="M279.457,510.932c-6.18,0.162-11.583-1.596-15.793-6.348
		c-2.077-2.345-4.527-3.964-7.833-3.615c-2.943,0.311-4.838-2.096-7.306-2.747c-4.135-1.092-8.472-1.391-12.683-2.229
		c-13.305-2.649-26.58-5.418-38.094-13.25c-0.806-0.548-1.906-1.352-2.664-1.172c-4.344,1.031-6.627-2.357-9.598-4.227
		c-0.826-0.521-1.881-2.098-2.088-1.972c-3.915,2.386-7.593-1.225-11.313-0.337c-1.551,0.37-3.095,1.359-4.313,2.438
		c-6.494,5.757-13.362,3.186-20.233,1.098c-0.313-0.096-0.604-0.438-0.892-0.42c-7.929,0.485-12.619-6.4-19.422-8.557
		c-2.823-0.896-4.85-3.343-6.822-5.625c-3.852-4.458-9.614-6.305-13.983-10.279c-4.109-3.739-7.798-7.639-10.812-12.2
		c-3.224-4.881-7.673-8.763-11.047-13.39c-4.914-6.739-8.354-14.476-11.924-22.075c-5.315-11.314-0.001-27.194,10.178-34.524
		c1.848-1.331,2.083-1.89,1.111-4.159c-3.558-8.313-1.158-16.136,3.309-23.397c1.202-1.954,3.077-3.483,3.329-5.965
		c0.895-0.229,1.241,0.091,1,0.999c0.168,3.044-1.781,5.304-2.949,7.838c-3.983,8.648-2.55,17.245,3.598,24.491
		c1.893,2.231,3.796,2.893,6.419,2.678c2.274-0.186,4.709-0.023,5.117,2.723c0.42,2.827-2.311,2.846-4.072,3.195
		c-3.407,0.677-6.001,2.778-8.813,4.504c-0.946,0.58-2.349,1.493-1.554,2.727c2.18,3.38-0.193,5.88-1.128,8.799
		c-3.225,10.064-2.706,19.257,5.236,27.555c11.56,12.081,23.897,23.36,35.492,35.389c5.264,5.46,11.857,5.59,18.523,4.978
		c3.984-0.367,7.687-0.992,11.545,0.942c5.002,2.509,9.21-1.912,14.033-2.352c7.375-0.673,13.676,0.767,19.506,5.089
		c7.287,5.4,15.759,8.759,23.431,13.515c2.658,1.647,5.948,1.435,9.063,1.839c6.262,0.814,12.429,2.729,18.468,4.7
		c2.592,0.846,5.176,0.93,7.718,1.48c7.76,1.683,15.611,3.309,23.34,4.745c10.001,1.861,11.356,10.723,16.972,15.979
		C287.598,511.278,283.507,510.892,279.457,510.932z"/>
	<path fill-rule="evenodd" clip-rule="evenodd" fill="#D36C30" d="M485.531,164.993c5.063,4.269,9.734,8.93,13.992,14.005
		c-1.521,2.157-3.291,4.157-3.151,7.107c0.076,1.607-0.848,3.471-2.363,3.376c-6.475-0.404-7.751,6.306-12.231,8.773
		c-2.637,1.453-2.285,6.016-0.725,9.202c2.847,5.82,5.664,11.633,6.92,18.057c0.275,1.406,1.256,2.307,2.37,3.085
		c1.109,0.775,2.542,1.713,2.5,2.966c-0.159,4.738,3.214,7.233,5.756,10.429c1.664,2.091,4.56,4.298,2.156,7.883
		c-0.643,0.958,0.847,1.754,1.726,1.997c3.681,1.021,5.707,2.85,6.404,7.082c0.418,2.543,3.21,4.902,5.45,6.917
		c0.892,0.802,1.513,1.762,1.66,2.988c-0.098,2.352,0.224,4.71-0.206,7.045c-0.149,0.684-0.298,1.367-0.447,2.051
		c-3.721,0.608-5.294-2.243-7.067-4.556c-5.075-6.621-10.319-13.042-16.843-18.356c-2.603-2.12-5.19-3.936-8.327-5.299
		c-4.705-2.045-7.041-6.775-10.024-10.668c-0.987-1.288-1.404-3.052-2.669-4.177c-5.658-5.038-6.46-12.401-9.423-18.76
		c-3.16-6.781-2.074-13.99-4.109-20.747c-0.592-1.967-0.615-3.96,0.037-5.908c0.858-2.563,1.238-5.113,0.856-7.853
		c-0.454-3.255,1.127-5.711,4.281-6.399c6.858-1.498,12.213-5.988,18.408-8.782C482.094,165.714,483.487,164.26,485.531,164.993z"/>
	<path fill-rule="evenodd" clip-rule="evenodd" fill="#DB7030" d="M70.563,317.996c-1.79,1.234-3.595,2.123-5.935,1.545
		c-3.754-0.929-6.881,1.512-8.391,3.897c-2.85,4.504-4.632,9.735-6.446,14.812c-0.624,1.744-0.736,4.373,0.165,5.825
		c2.384,3.841,3.618,7.421,0.907,11.521c-0.16,0.242-0.201,0.88-0.093,0.936c4.794,2.465,1.106,7.098,2.67,10.479
		c1.432,3.093,1.16,6.403-1.534,9.078c-0.452,0.448-1.119,1.295-0.967,1.646c2.51,5.8,1.658,12.892,4.665,17.881
		c2.62,4.348,2.108,9.217,5.206,13.353c-2.853-1.378-4.461-1.206-4.254,2.036c-10.875-14.125-19.596-29.567-27.695-45.386
		c-0.588-1.148-0.848-2.464-1.261-3.702c0.201-2.874,1.505-5.543,3.011-7.689c3.811-5.431,5.083-11.67,4.872-17.764
		c-0.164-4.757,0.029-10.052-2.99-14.489c-1.583-2.325,0.14-4.035,1.661-5.641c3.21-3.387,6.971-6.176,10.281-9.453
		c3.358-3.323,3.46-3.963-0.422-6.888c-3.506-2.641-6.199-6.021-9.225-9.094c-1.813-1.84-2.944-4.076-1.571-6.772
		c2.391-1.104,3.297,0.919,4.319,2.249c2.094,2.723,4.58,4.809,7.869,5.879c1.462,0.792,2.557,2.021,3.749,3.136
		c3.775,3.244,7.646,6.386,11.049,10.044c2.598,2.697,5.318,5.275,7.899,7.988C69.326,314.708,70.682,315.968,70.563,317.996z"/>
	<path fill-rule="evenodd" clip-rule="evenodd" fill="#D76E30" d="M515.822,268.113c-4.343-1.089-4.99-6.357-8.932-7.9
		c2.542-7.278-5.007-5.855-7.558-8.742c-0.411-0.465-0.967-0.803-1.498-1.233c3.451-2.539,3.055-5.827-1.323-9.188
		c-2.638-2.024-5.458-3.613-4.138-7.693c0.159-0.49-0.229-1.454-0.673-1.798c-8.071-6.247-6.548-17.317-12.48-24.727
		c-2.187-2.731,0.204-9.288,3.301-11.227c2.116-1.325,4.738-1.955,4.683-5.438c-0.02-1.211,1.831-2.544,3.524-1.916
		c4.327,1.604,4.658-0.427,4.486-4.068c-0.119-2.508,1.158-4.883,4.309-5.184c2.239,1.981,4.478,3.963,6.717,5.945
		c4.946,16.71,7.612,33.846,9.544,51.118c0.72,2.622-0.479,5.413,0.705,7.994c0,7.957,0,15.915,0.001,23.872
		C516.267,267.989,516.045,268.052,515.822,268.113z"/>
	<path fill-rule="evenodd" clip-rule="evenodd" fill="#E67330" d="M5.624,275.971c0.973,0.173,2.329-0.004,2.859,0.574
		c4.571,4.985,7.992,1.51,11.406-1.465c3.217-2.804,6.758-5.104,9.739-8.346c5.188-5.645,12.713-7.151,20.01-7.639
		c17.996-1.206,35.976-2.432,53.82-5.146c10.449-1.59,20.878-3.306,31.339-4.809c3.906-0.562,5.29-3.059,5.73-6.448
		c1.369-10.522,3.369-20.771,9.012-30.1c1.598-2.641,1.271-6.404,2.05-9.598c0.531-2.178,0.52-4.728,2.966-5.999
		c1.857,2.565,0.419,5.178-0.106,7.647c-3.133,14.707-7.847,29.102-8.581,44.277c-0.162,3.357-2.069,5.016-5.36,5.413
		c-21.203,2.561-42.275,6.076-63.473,8.628c-1.964-0.35-3.912-0.514-5.672,0.76c-0.966,0.323-1.962,0.389-2.97,0.367
		c-7.837,1.233-15.72,1.961-23.646,2.294c-10.931,0.459-14.841,9.486-14.66,18.842c0.081,4.186-0.349,7.09-3.687,9.99
		c-5.094,4.424-6.132,10.888-6.429,17.27c-0.185,3.985-0.538,7.947-0.835,11.919c-0.187,2.502-1.021,4.521-3.536,5.488
		C10.054,312.33,6.452,294.407,5.624,275.971z"/>
	<path fill-rule="evenodd" clip-rule="evenodd" fill="#CD6A30" d="M485.531,164.993c-5.353,3.006-10.715,5.995-16.056,9.022
		c-6.522,3.696-8.405,6.357-10.601,13.113c-1.125,3.463-1.47,6.611-0.27,10.142c0.884,2.604,1.41,5.464,0.59,8.309
		c-0.178,0.617-0.525,1.585-0.25,1.874c4.141,4.357,4.22,10.453,5.637,15.605c1.883,6.85,7.204,10.913,10.452,16.486
		c2.196,3.77,5.201,8.241,10.958,10.188c6.231,2.106,10.631,8.147,15.424,12.965c4.866,4.891,7.333,11.962,13.927,15.258
		c-0.333,2.677-0.667,5.353-1.001,8.029c-1.496-0.015-2.564-0.928-3.291-2.013c-5.134-7.661-12.447-13.526-17.385-21.389
		c-1.87-2.977-4.205-6.198-7.481-7.634c-8.361-3.662-12.696-11.316-18.43-17.58c-3.228-3.525-5.958-7.531-9.349-10.879
		c-5.7-5.63-6.167-13.091-7.789-20.179c-1.725-7.532,0.013-15.18-0.751-22.844c-0.755-7.568,2.25-14.981,5.156-22.319
		c2.742-6.926,7.177-10.663,13.525-13.154C474.598,153.27,480.262,158.934,485.531,164.993z"/>
	<path fill-rule="evenodd" clip-rule="evenodd" fill="#E27230" d="M15.601,329.893c3.246-4.725,2.757-10.208,2.907-15.478
		c0.177-6.229,1.226-12.123,4.508-17.507c0.954-1.564,1.877-3.031,3.677-3.893c2.63-1.258,2.765-3.464,2.343-6.2
		c-1.465-9.487,3.399-21.522,15.416-21.854c6.083-0.167,12.155-0.716,18.237-0.992c2.016-0.092,3.541-2.991,5.878-0.98
		c0.583,0.696,0.625,1.46,0.287,2.271c-3.843,3.223-8.674,2.313-13.096,3.072c-5.783,0.994-11.84,0.983-16.71,4.99
		c-0.898,1.189-1.922,2.275-2.838,3.447c-2.188,1.927-0.535,5.264-2.639,7.216c-0.186,6.854,5.425,9.963,9.552,13.541
		c6.715,5.822,7.088,5.488,0.84,11.524c-2.958,2.857-6.191,5.427-9.157,8.275c-1.58,1.518-4.229,3.35,0.097,4.945
		c1.212,0.446,2.172,1.927,1.391,2.751c-2.727,2.874-0.265,5.234,0.375,7.768c0.359,1.423,0.802,2.681,0.458,4.313
		c-0.613,2.906-2.445,5.629-0.462,9.032c1.082,1.857-2.499,2.618-3.344,4.81c-1.455,3.774-2.384,8.085-5.721,10.972
		C22.511,351.65,18.654,340.922,15.601,329.893z"/>
	<path fill-rule="evenodd" clip-rule="evenodd" fill="#FDFDFD" d="M515.822,268.113c0.233-0.023,0.456-0.085,0.667-0.186
		c-0.288,2.655,0.775,5.429-0.701,7.978C515.8,273.309,515.811,270.711,515.822,268.113z"/>
	<path fill-rule="evenodd" clip-rule="evenodd" fill="#FDFDFD" d="M516.489,244.056c-1.2-2.579-0.245-5.35-0.705-7.994
		C517.266,238.616,516.202,241.396,516.489,244.056z"/>
	<path fill-rule="evenodd" clip-rule="evenodd" fill="#CA6C30" d="M326.452,502.932c-2.394-0.461-0.704-1.141,0.011-1.359
		c0.82-0.25,2.746-2.256,2.17,0.941C327.906,502.653,327.179,502.792,326.452,502.932z"/>
	<path fill-rule="evenodd" clip-rule="evenodd" fill="#D16E30" d="M265.579,511.791c1.949-1.297,3.917-1.223,5.898-0.078
		C269.511,511.739,267.545,511.765,265.579,511.791z"/>
	<path fill-rule="evenodd" clip-rule="evenodd" fill="#E97938" d="M157.556,157.002c1.616-5.328,2.462-10.854,6.085-15.527
		c2.296-2.964-0.376-3.875-2.804-3.389c-10.87,2.176-20.679-0.887-30-5.997c-13.718-7.522-21.547-19.438-24.211-34.622
		c-4.876-27.788,17.024-52.706,42.242-55.665c26.355-3.092,49.954,16.488,53.701,40.84c2.546,16.542-3.085,30.203-14.207,42.082
		c-0.859,0.917-2.604,1.66-2.027,3.109c0.671,1.688,2.64,1.387,4.006,1.113c6.348-1.271,12.682-2.498,19.208-1.941
		c1.3,1.414,2.798,2.313,4.781,1.598c4.134-1.49,8.147,0.226,12.218,0.402c1.097,2.987-1.409,3.224-3.094,3.749
		c-2.863,0.892-5.861,0.682-8.81,0.368c-1.618-0.172-3.232-0.793-4.728,0.376c-5.518,1.856-11.156,2.395-17.002,2.442
		c-5.744,0.046-11.443,1.343-16.359,4.762c-1.054,1.042-2.31,1.79-3.592,2.501c-3.618,1.526-4.848,4.872-5.845,8.173
		c-1.811,5.998-2.751,12.203-3.918,18.354c-0.731,3.848-1.586,7.736-4.554,10.678c-0.772,0.246-1.484,0.19-2.09-0.409
		c1.911-6.784,0.218-14.168,3.662-20.767C161.265,157.225,159.055,157.063,157.556,157.002z"/>
	<path fill-rule="evenodd" clip-rule="evenodd" fill="#E67534" d="M209.55,133.004c0.688-1.613,1.162-2.069,3.499-1.634
		c4.526,0.843,9.772,2.592,13.5-2.365c10.824-1.004,21.76-1.384,32.423-3.287c5.017-0.896,10.335-0.95,15.246-3.198
		c2.358-1.08,5.523-0.397,8.324-0.514c0.791,1.811,2.364,2.268,4.054,1.96c3.119-0.567,6.026,0.155,8.944,1.04
		c0.245,1.531-0.916,2.175-1.964,2.305c-5.307,0.661-10.163,3.615-15.698,3.068c-11.71,0.829-23.422,1.607-35.122,2.495
		c-9.376,0.711-18.749,1.542-28.122,2.319C212.626,135.36,210.58,135.268,209.55,133.004z"/>
	<path fill-rule="evenodd" clip-rule="evenodd" fill="#E17131" d="M278.541,129.004c6.008,0.121,11.397-2.388,16.998-3.998
		c15.567,0.487,31.159-0.557,46.493-2.475c7.997-1.001,16.163-2.335,24.04-2.21c16.761,0.266,33.298-2.314,49.999-2.482
		c8.352-0.084,16.646-1.413,25.112-1.079c8.609,0.341,15.213,8.46,15.341,18.233c-0.331-0.001-0.662-0.002-0.993-0.006
		c-2.541-0.652-3.636-2.6-4.369-4.876c-2.271-7.176-7.751-9.882-14.634-9.617c-13.437,0.517-26.842,1.682-40.259,2.625
		c-9.612,0.676-19.207,1.64-28.819,2.172c-19.734,1.095-39.431,2.794-59.158,3.801c-9.437,0.481-18.796,1.922-28.257,1.907
		C279.171,130.608,278.36,130.176,278.541,129.004z"/>
	<path fill-rule="evenodd" clip-rule="evenodd" fill="#E97431" d="M156.556,179.998c0.667,0.001,1.333,0.001,2,0.001
		c2.047,3.225,1.357,6.33-1.999,8.999l-0.002-0.002C156.527,185.997,154.371,182.997,156.556,179.998z"/>
	<path fill-rule="evenodd" clip-rule="evenodd" fill="#BD6830" d="M326.535,479.961c-6.072-5.259-11.739-10.924-16.999-16.997
		c-0.095-1.867,1.08-3.052,2.26-4.251c11.305-11.479,22.933-22.635,34.236-34.111c5.58-5.666,11.489-11.074,16.135-17.623
		c3.905-5.506,6.774-11.284,7.272-18.251c0.543-7.604,0.365-15.231,1.049-22.825c-0.159,2.847,0.024,5.733-0.922,8.481
		c-0.395,1.146-1.039,2.256-2.492,1.853c-1.106-0.307-1.523-1.466-1.296-2.432c1.468-6.258-1.226-13.021,2.319-19.013
		c0.644-1.089-0.02-1.742-0.654-2.59c-2.75-3.677-2.667-7.456-0.648-11.559c2.99-6.076,7.789-10.725,11.892-15.928
		c1.125-1.243,2.321-2.406,3.71-3.355c4.315-2.243,8.981-3.86,12.725-7.129c2.926-1.797,6.438-2.69,8.405-5.939
		c1.665-2.751,2.547-5.405,0.424-8.287c-0.422-0.862-0.671-1.778-0.886-2.706c-0.323-1.007-1.182-1.576-1.86-2.292
		c-2.038-2.151-1.013-3.645,1.186-4.56c2.307-0.962,4.785-1.237,7.309-1.162c6.618,0.194,11.39-2.852,13.274-8.879
		c3.085-9.877,6.153-19.772,8.956-29.72c1.455-5.165,1.992-10.754,2.228-16.214c0.165-3.815,0.349-7.605,0.968-11.378
		c-0.011-3.979,1.252-7.817,1.217-11.806c-0.013-1.54,0.715-2.88,2.31-3.496c2.75,0.798,1.948,3.052,1.859,4.871
		c-0.325,6.642-0.716,13.265,1.207,19.774c0.324,1.097,0.1,2.418,0.848,3.347c2.579,3.201,4.942,6.257-0.281,9.284
		c-0.746,0.433-0.888,2.231-0.313,2.783c3.073,2.949,0.396,5.023-0.837,7.388c-4.522,8.666-10.027,16.818-12.642,26.458
		c-1.734,6.396-7.01,9.582-13.023,11.246c-3.891,1.077-5.479,2.653-4.613,7.028c1.419,7.173-2.735,11.979-8.236,15.727
		c-4.93,3.359-10.556,5.558-15.324,9.261c-2.105,1.636-4.277,3.177-6.08,5.126c-4.911,5.312-5.178,7.961-1.357,14.112
		c3.091,4.976,5.838,10.085,7.273,15.816c0.284,1.133,0.661,2.28,1.443,3.159c7.686,8.634,6.956,19.274,7.083,29.696
		c0.019,1.533-0.499,2.889-2.12,3.652c-2.779,1.311-3.189,3.399-2.126,6.22c2.022,5.37,1,10.554-2.103,15.15
		c-3.536,5.239-7.458,10.193-12.015,14.655c-9.64,9.438-19.113,19.048-28.648,28.592c-1.76,1.761-3.695,3.393-4.195,6.05
		c-0.331,1.763-1.507,2.709-3.238,2.264c-3.08-0.793-3.708,1.371-5.16,3.303C333.646,475.96,331.967,480.594,326.535,479.961z"/>
	<path fill-rule="evenodd" clip-rule="evenodd" fill="#C26930" d="M326.535,479.961c4.305-1.812,7.265-4.964,9.169-9.177
		c0.471-1.041,0.971-2.069,1.458-3.104c6.974,3.318,6.839-4.207,9.59-6.746c10.151-9.37,19.602-19.495,29.523-29.122
		c4.57-4.435,8.551-9.344,11.967-14.601c2.938-4.52,4.624-9.511,1.259-15.084c-1.493-2.473,0.069-6.19,2.67-6.741
		c2.56-0.541,2.255-1.53,2.371-3.152c0.562-7.899-1.201-15.488-2.988-23.079c-0.114-0.482-0.038-1.155-0.336-1.429
		c-7.861-7.207-7.615-18.861-14.589-26.55c-1.626-1.794-1.412-3.534-0.386-5.817c4.068-9.063,12.633-12.626,20.346-17.251
		c4.207-2.522,8.739-4.31,11.347-9.15c1.859-3.45,3.028-6.646,1.502-10.21c-1.703-3.979,0.378-5.618,3.6-6.376
		c2.635-0.619,5.033-1.634,7.405-2.837c3.777-1.919,6.104-4.959,7.136-9.04c2.659-10.512,8.8-19.327,14.239-28.427
		c1.46-2.443,0.77-1.493-0.898-1.717c-1.493-0.199-1.6-2.225-0.607-2.67c2.28-1.022-2.485-4.332,1.811-4.506
		c3.498-0.143,3.147-3.085,1.356-4.288c-4.729-3.175-2.923-8.26-4.107-12.339c-1.744-6.01,0.444-12.343,0.148-18.553
		c-0.325-0.326-0.465-0.714-0.399-1.173c0.554-1.456,0.396-2.969,0.328-4.476c0.165-2.232,0.801-4.378,1.175-6.569
		c0.445-1.376,1.493-2.565,1.276-4.154c0.005-0.443,0.063-0.875,0.148-1.308c0.637-1.243,0.003-3.443,2.471-3.317
		c-0.129,8.575-0.556,17.058-2.017,25.602c-0.831,4.854,0.162,10.265,2.188,15.529c2.61,6.781,10.147,11.071,9.405,19.38
		c-0.124,1.384,1.018,2.175,2.563,2.551c3.245,0.792,3.966,2.286,0.895,4.549c-2.08,1.531-3.242,3.142-2.403,6.302
		c0.962,3.625-4.058,7.441-8.381,6.966c-4.497-0.493-7.714,0.505-10.442,4.923c-2.749,4.45-5.043,9.123-7.7,13.602
		c-2.396,4.041-5.788,6.709-10.028,8.598c-3.726,1.66-6.265,3.708-6.47,8.81c-0.245,6.111-4.994,10.173-10.068,13.403
		c-4.891,3.114-10.224,5.461-14.791,9.184c-2.027,1.651-3.335,3.619-4.733,5.633c-1.482,2.135-1.169,4.396,0.885,5.711
		c6.093,3.906,9.943,10.15,15.575,14.5c0.833,0.645,1.259,1.433,1.526,2.459c1.872,7.202,5.537,14.194,5.355,21.596
		c-0.158,6.422,3.522,13.111-0.983,19.461c-1.441,2.032,0.252,4.446,1.295,6.552c6.064,12.243,4.024,20.698-6.165,30.091
		c-7.25,6.685-13.262,14.782-20.835,21.025c-6.837,5.637-11.022,13.597-17.849,18.789c-3.868,2.943-7.895,4.965-9.072,10.1
		c-0.202,0.883-1.393,1.95-2.291,0.928c-2.984-3.393-2.975-1.06-3.518,1.495c-0.886,4.172-3.938,6.289-7.926,7.227
		C334.125,488.368,330.125,484.369,326.535,479.961z"/>
	<path fill-rule="evenodd" clip-rule="evenodd" fill="#C46A30" d="M162.555,430.968c-6-6-12-11.998-17.999-17.997
		c2.257-4.079,5.379-7.517,8.374-11.025c2.137-2.504,5.217-3.492,8.41-3.859c7.264-0.836,14.429-2.034,21.174-5.032
		c0.606-0.27,1.233-0.674,1.865-0.673c10.771,0.009,17.828-7.329,25.321-13.314c7.884-6.298,15.523-13.004,21.829-21.031
		c2.32-2.954,5.408-4.481,9.219-3.41c3.52,0.989,6.925-0.279,10.394-0.258c2.174,0.014,4.291,0.012,6.396,0.568
		c3.637,1.712,7.498,3.211,8.005,8.04c-0.472,0.152-1.099,0.582-1.392,0.417c-5.221-2.934-8.069-0.383-11.466,3.712
		c-10.362,12.486-21.767,24.016-34.69,33.931c-3.04,2.333-4.546,5.958-7.754,8.313c-3.155,2.316-5.872,4.609-9.974,5.49
		c-4.505,0.967-7.553,4.077-6.75,9.46c0.218,1.462,0.28,3.046-0.048,4.468c-0.473,2.051-0.926,4.362-2.186,5.916
		c-1.976,2.438-3.127-1.073-4.91-1.328c-5.632-0.806-11.266-0.256-16.893-0.333C166.901,432.986,164.545,432.738,162.555,430.968z"
		/>
	<path fill-rule="evenodd" clip-rule="evenodd" fill="#B86630" d="M379.529,324.981c-3.494,6.011-9.485,10.288-11.951,16.98
		c-1.293,3.51-2.938,7.253,1.875,9.775c1.398,0.732,1.576,2.922,0.587,3.428c-3.955,2.025-2.216,5.471-2.472,8.355
		c-0.353,3.976-0.426,7.975-0.677,13.155c3.685-5.367,2.029-10.561,3.46-15.149c1.865,3.357,0.914,6.931,0.877,10.283
		c-0.097,8.969,0.618,18.09-2.729,26.738c-2.377,6.14-6.467,11.24-10.854,15.928c-7.21,7.703-14.967,14.892-22.413,22.378
		c-8.611,8.658-17.135,17.404-25.697,26.11c-0.952-0.382-1.619-1.047-2-1.999c-0.5-2.883,1.927-4.063,3.466-5.614
		c14.542-14.652,29.217-29.172,43.735-43.846c7.359-7.438,11.614-16.482,12.75-27.004c-0.887,14.89-10.737,24.381-20.518,33.655
		c-12.793,12.133-24.675,25.163-37.481,37.269c-1.4,1.324-2.464,3.328-4.953,2.54c-5.408-4.591-10.412-9.586-14.995-15
		c14.043-15.094,28.635-29.588,46.208-40.638c6.489-4.08,11.021-9.363,13.14-16.819c3.391-11.937,8.063-23.485,8.773-36.161
		c0.367-6.549,5.754-11.034,9.462-16.093c0.978-1.334,2.302-2.396,3.246-3.774c2.011-2.229,4.183-4.245,7.105-5.245
		C378.268,324.188,378.977,324.373,379.529,324.981z"/>
	<path fill-rule="evenodd" clip-rule="evenodd" fill="#B46330" d="M371.528,329.979c-2.081,2.576-4.165,5.148-6.24,7.728
		c-4.125,5.126-6.429,10.543-7.071,17.515c-1.168,12.691-5.925,24.728-10.4,36.646c-1.495,3.979-4.64,7.26-8.406,9.569
		c-17.143,10.516-31.687,24.076-45.446,38.572c-1.228,1.294-2.294,2.955-4.422,2.956c-4.666-4.333-9.332-8.668-13.997-13.001
		c-0.329-0.474-0.318-0.94,0.029-1.399c11.258-5.338,22.363-10.978,33.223-17.1c8.998-5.072,17.36-11.136,25.996-16.761
		c6.759-4.402,8.133-12.266,10.438-19.369c2.635-8.117,4.018-16.453,3.863-24.978c-0.12-6.65,3.383-10.933,8.607-14.19
		c2.119-1.322,4.071-2.899,6.293-4.061C366.61,331.779,368.395,328.474,371.528,329.979z"/>
	<path fill-rule="evenodd" clip-rule="evenodd" fill="#BD6830" d="M304.537,457.965c5.907-5.498,12.289-10.576,17.602-16.598
		c6.939-7.865,14.896-14.644,22.063-22.236c7.852-8.32,17.525-15.291,20.398-27.325c0.649-2.72,1.229-5.457,1.851-8.183
		c0.204-0.891-0.085-2.305,1.364-2.169c1.38,0.129,0.958,1.276,0.927,2.306c-0.315,10.817-4.874,19.955-12.132,27.471
		c-14.915,15.445-30.294,30.441-45.461,45.643c-1.282,1.286-2.412,2.725-3.613,4.092
		C306.189,460.312,305.189,459.313,304.537,457.965z"/>
	<path fill-rule="evenodd" clip-rule="evenodd" fill="#C36A30" d="M275.545,428.964c0,0.334,0,0.667,0,1
		c-8.232,2.3-15.653-4.008-17.095-10.167c-1.197-5.108-0.521-9.792,1.141-14.55c3.171-9.076,6.247-18.187,9.459-27.247
		c1.645-4.638,1.902-9.02-1.505-13.026c1.549-1.274,3.217-1.318,4.277,0.364c2.373,3.764,4.556,7.435,2.696,12.422
		c-3.869,10.378-6.917,21.041-10.07,31.661c-2.376,8.003-0.874,11.426,6.975,15.338
		C273.271,425.694,275.019,426.732,275.545,428.964z"/>
	<path fill-rule="evenodd" clip-rule="evenodd" fill="#BB6730" d="M271.553,425.96c-8.453-2.796-11.066-8.104-8.464-16.267
		c3.715-11.653,7.218-23.378,10.683-35.109c1.05-3.554-2.798-9.221-6.227-9.61c-0.383-0.951-1.05-1.617-2.002-1.998
		c-2.097-2.984-4.565-5.544-7.999-7c-0.087-0.257-0.175-0.513-0.263-0.769c0.318-0.471,0.758-0.757,1.316-0.861
		c3.819,0.332,7.491,1.42,11.166,2.392c6.414,1.696,9.445,6.551,8.381,13.085c-0.269,1.651-0.198,3.313-0.366,4.962
		c-2.035,8.062-5.242,15.732-8.013,23.55c-1.499,4.228-3.044,8.431-4.167,12.781c-0.708,2.743-0.553,5.261,1.352,7.494
		c1.128,1.775,2.629,3.244,4.033,4.794C271.513,424.179,272.095,424.946,271.553,425.96z"/>
	<path fill-rule="evenodd" clip-rule="evenodd" fill="#E27131" d="M75.566,261.988c21.748-3.002,43.489-6.054,65.251-8.944
		c2.753-0.366,3.817-1.492,3.744-4.123c-0.335-12.113,4.269-23.36,6.23-35.074c0.949-5.668,2.491-11.235,3.764-16.85
		c1.491-1.724,1.3-4.01,2.002-5.998c3.295,0.912,1.844,3.257,1.412,5.115c-0.812,3.496-1.996,6.92-1.529,10.599
		c-2.398,9.669-4.198,19.47-6.468,29.165c-1.081,4.615-1.349,9.133-0.336,13.813c1.067,4.933-0.686,7.357-5.856,7.568
		c-20.979,0.857-41.457,5.552-62.242,7.864c-1.995,0.222-3.994,0.449-5.816-0.732C75.001,263.633,74.985,262.829,75.566,261.988z"/>
	<path fill-rule="evenodd" clip-rule="evenodd" fill="#DD7436" d="M155.555,205.995c-1.334-3.388,0.381-6.452,1.037-9.625
		c0.371-1.799,1.973-3.592-0.034-5.371c0-0.667-0.001-1.335-0.001-2.001c1.483-2.818,2.402-5.763,1.999-8.999
		c3.907-9.007,4.287-18.901,7.097-28.168c1.205-3.973,2.025-8.663,7.365-9.675c-0.835,8.069-3.148,15.849-4.874,23.733
		c-1.587,7.251-2.375,14.732-5.389,21.639c-2.643,3.776-2.776,8.343-4.015,12.565C158.114,202.225,158.805,205.228,155.555,205.995z
		"/>
	<path fill-rule="evenodd" clip-rule="evenodd" fill="#BF6830" d="M257.543,354.977c0,0.333,0,0.666,0,0.999
		c-4.071-0.729-8.127-0.445-12.176,0.188c-0.323,0.05-0.711,0.406-0.927,0.308c-9.12-4.152-12.559,3.45-17.229,8.365
		c-9.522,10.025-20.437,18.373-31.589,26.44c-1.362,0.984-2.865,1.875-4.598,1.656c-3.807-0.481-7.202,0.824-10.585,2.204
		c-6.266,2.556-12.774,3.653-19.527,4.047c-6.368,0.371-9.021,6.197-12.654,10.22c-1.17,1.296-2.408,2.438-3.702,3.567
		c-5.412-4.588-10.411-9.587-14.997-14.999c2.546-4.737,7.403-5.858,11.878-7.56c0.772-0.293,1.915-0.101,2.385-0.613
		c4.533-4.938,11.127-3.567,16.605-5.56c1.455-0.529,2.953-0.44,4.448-0.249c1.531,0.197,3.019,0.104,4.33-0.778
		c9.917-6.669,21.521-10.306,31.115-17.658c4.198-3.218,8.183-6.22,10.029-11.358c1.354-3.77,3.702-5.616,8.042-4.76
		c3.586,0.708,7.23-0.498,10.886-0.559c8.433-0.141,16.477,1.925,24.572,3.766C255.289,352.97,256.745,353.518,257.543,354.977z"/>
	<path fill-rule="evenodd" clip-rule="evenodd" fill="#FEFEFE" d="M94.506,361.849c-3.263-1.481-5.021-3.923-4.849-7.599
		c4.372-12.773,10.441-24.817,15.955-37.101c0.752-1.676,1.724-3.265,3.666-3.878c1.576-0.35,3.027,0.195,4.498,0.616
		c1.441,0.472,2.914,0.828,4.404,1.13c12.085,3.359,24.234,6.48,36.268,10.032c1.948,1.062,1.386,2.675,0.948,4.266
		c-0.889,2.33-1.777,4.674-2.524,7.05c-2.302,7.313-7.125,11.594-14.537,13.674c-12.816,3.596-25.466,7.779-38.202,11.659
		C98.342,362.243,96.42,363.549,94.506,361.849z"/>
	<path fill-rule="evenodd" clip-rule="evenodd" fill="#BB6730" d="M257.543,354.977c-10.547-3.115-21.262-5.272-32.314-4.831
		c-3.161,0.126-6.12,1.354-9.503,0.154c-1.814-0.643-3.442,1.587-4.043,3.668c-1.831,6.344-6.45,9.861-11.869,13.252
		c-7.936,4.963-15.426,10.555-24.634,13.132c-1.299,0.363-2.21,1.957-3.424,2.805c-2.253,1.574-4.271,2.609-7.589,2.202
		c-4.285-0.524-8.639,2.833-13.313,1.07c-5.111,6.755-15.106,4.8-20.334,11.374c-0.151,0.19-0.632,0.118-0.96,0.169
		c-3.738-2.928-7.075-6.256-9.999-9.999c0.684-6.42,3.39-8.666,9.279-7.444c1.832,0.381,3.142-0.139,4.625-1.084
		c4.189-2.668,8.669-4.171,13.713-2.689c1.124,0.33,2.479,0.694,3.412,0.009c4.647-3.416,10.377-4.326,15.472-6.742
		c6.778-3.213,13.149-6.81,19.168-11.268c4.693-3.477,9.622-6.551,12.824-11.646c1.103-1.754,2.815-2.973,4.904-3.122
		c6.088-0.434,12.127-2.005,18.305-0.161c4.94,1.474,10.085,2.104,15.256,2.308c5.657,0.899,11.378,1.53,16.723,3.813
		c0.963,0.249,1.825,0.697,2.598,1.32c0.971,1.049,2.341,1.92,1.705,3.709L257.543,354.977z"/>
	<path fill-rule="evenodd" clip-rule="evenodd" fill="#B76530" d="M236.546,346.978c-6.544,0.841-12.723-1.265-18.959-2.569
		c-5.419-1.136-10.454,1.152-15.724,1.042c-1.097-0.023-2.011,1.039-2.622,2.11c-5.27,9.257-14.921,13.694-23.17,19.032
		c-5.672,3.67-12.364,7.461-19.711,8.441c-0.776,0.104-1.797,0.407-2.194,0.975c-2.259,3.227-5.187,2.828-8.35,1.873
		c-4.489-1.355-8.264,0.381-11.776,2.957c-1.334,0.978-2.742,2.59-4.366,1.569c-6.085-3.822-7.704,0.5-9.438,4.857
		c-0.112,0.281-0.445,0.474-0.675,0.707c-3.068-2.265-5.732-4.935-8.002-7.998c3.028-8.206,9.167-11.781,17.47-14.289
		c14.387-4.346,29.497-6.721,42.792-14.515c4.438-2.602,8.458-5.215,12.237-8.923c4.583-4.498,11.589-4.239,17.94-3.997
		c10.528,0.4,20.588,3.46,30.803,5.619C234.485,344.226,236.583,344.402,236.546,346.978z"/>
	<path fill-rule="evenodd" clip-rule="evenodd" fill="#B26330" d="M236.546,346.978c-3.617-3.147-8.425-2.641-12.626-3.737
		c-7.633-1.991-15.54-3.274-23.407-3.907c-4.832-0.389-9.796,1.026-14.545,2.477c-0.313,0.096-0.729,0.226-0.864,0.47
		c-5.132,9.224-15.194,10.794-23.457,15.161c-5.734,3.031-12.345,3.078-18.272,5.51c-4.219,1.731-8.577,3.18-12.97,4.412
		c-2.753,0.772-5.468,0.07-8.384,2.246c-3.39,2.531-6.873,4.421-8.193,8.721c-0.325,1.06-1.166,1.573-2.267,1.646
		c-2.719-1.946-5.065-4.264-6.989-7.004c10.236-6.7,20.196-13.886,32.535-16.519c11.237-2.397,20.076-7.911,25.832-18.49
		c4.569-8.397,8.891-9.253,18.26-5.845c2.248,0.818,4.619,0.461,6.927,0.72c20.715,2.328,40.859,7.328,60.878,12.924
		c1.01,0.281,1.92,0.76,2.742,1.407c1.026,1.064,2.396,1.974,1.802,3.808C247.879,349.643,242.212,348.31,236.546,346.978z"/>
	<path fill-rule="evenodd" clip-rule="evenodd" fill="#C46830" d="M109.554,313.946c-4.993,6.604-7.19,14.605-10.907,21.85
		c-3.123,6.087-6.003,12.298-8.99,18.454c-0.19-3.222,1.452-5.891,2.563-8.738c0.867-2.221,1.995-4.605-0.656-6.533
		c-0.334-0.333-0.667-0.666-1-0.999c-6.255-7.074-12.91-13.746-20.001-19.983c-3.67-4-7.341-8-11.012-12
		c3.124-4.132,8.003-3.062,11.917-3.134c12.108-0.223,24.04,1.637,35.556,5.677C109.826,309.522,111.495,310.838,109.554,313.946z"
		/>
	<path fill-rule="evenodd" clip-rule="evenodd" fill="#A85F30" d="M249.546,346.976c-11.208-2.783-22.332-5.987-33.647-8.229
		c-10.814-2.141-21.669-4.387-32.765-4.78c-0.985-0.035-2.074,0.02-2.932-0.369c-7.809-3.535-12.334-2.778-16.221,4.998
		c-5.777,11.56-15.501,16.491-27.192,19.421c-8.945,2.242-17.54,5.492-24.44,12.021c-2.193,2.075-5.124,2.127-7.781,2.933
		c-1.697-0.968-3.042-2.288-3.994-4.001c11.441-6.076,23.113-11.612,35.521-15.48c3.954-1.231,8.154-1.983,11.594-4.422
		c5.978-4.234,9.529-10.022,10.329-17.396c0.661-6.085,2.942-7.794,8.951-6.768c16.675,2.846,33.162,6.63,49.727,10.02
		c1.642,0.337,3.241,0.689,4.915,0.396c8.775,2.078,17.616,3.948,25.87,7.782C248.692,344.113,250.114,345.019,249.546,346.976z"/>
	<path fill-rule="evenodd" clip-rule="evenodd" fill="#9F5C30" d="M221.55,336.365c-5.997,0.797-11.477-1.831-17.229-2.671
		c-10.748-1.569-21.044-5.605-32.039-5.975c-1.417-0.048-2.791-0.705-4.179-1.244c-5.693-2.209-8.752,0.012-9.009,6.051
		c-0.347,8.138-7.266,17.343-13.84,19.352c-13.942,4.259-27.53,9.325-40.315,16.394c-1.395,0.77-2.874,0.69-4.363,0.698
		c-1.344-0.655-2.359-1.643-3.014-2.993c2.968-3.304,7.409-3.246,11.147-4.718c11.686-4.598,23.405-9.122,35.19-13.476
		c4.39-1.621,7.675-5.197,8.87-10.12c0.705-2.9,1.258-5.826,1.529-8.801c0.089-0.946,0.178-1.892,0.268-2.837
		c-1.788-3.528,0.825-3.905,3.178-4.332c5.183-0.941,10.121,0.836,15.16,1.487c5.886,0.76,11.475,3.042,17.434,3.423
		c9.369,1.933,18.471,4.891,27.71,7.331C219.435,334.301,220.959,334.73,221.55,336.365z"/>
	<path fill-rule="evenodd" clip-rule="evenodd" fill="#955830" d="M154.298,328.862c1.36,11.929-2.377,17.381-14.694,22.009
		c-11.822,4.44-23.57,9.078-35.341,13.653c-2.166,0.843-4.688-0.043-6.701,1.452c-1.26-1.196-3.618-1.58-3.054-4.127
		c11.922-3.628,23.848-7.247,35.767-10.891c2.834-0.866,5.585-2.143,8.476-2.657c6.622-1.179,10.417-5.02,12.223-11.355
		C151.767,334.161,153.171,331.551,154.298,328.862z"/>
	<path fill-rule="evenodd" clip-rule="evenodd" fill="#BB6330" d="M441.521,194.997c0.5,2.771-0.95,5.297-1.001,7.999
		c-0.824,1.211-0.549,2.695-1,3.999c0,0.333,0,0.667,0,1c-3.923,3.663-1.016,8.882-2.938,13.032c-0.38,0.822-0.059,1.97-0.062,2.967
		c-1.407,0.852-2.117,0.206-2.498-1.157c0.012-10.843,3.358-21.224,4.494-31.889c1.952-18.328,6.427-36.127,10.384-54.045
		c0.463-2.097-0.085-4.34,0.938-6.354c1.167-1.477,1.927-0.527,2.684,0.451c1.003,1.329,2.006,2.659,3.009,3.988
		c-1.021,6.967-3.5,13.496-6.011,20.015c-3.319,11.806-4.833,23.963-6.998,35.993c0,0.334-0.001,0.668-0.002,1.002
		C442.471,193.092,442.252,194.13,441.521,194.997z"/>
	<path fill-rule="evenodd" clip-rule="evenodd" fill="#BD6830" d="M442.521,190.996c0.901-12.275,2.656-24.387,6.998-35.993
		c-1.075,6.094-2.113,12.194-3.236,18.28c-0.839,4.542-1.813,9.061-1.764,13.715C442.901,187.855,444.14,190.14,442.521,190.996z"/>
	<path fill-rule="evenodd" clip-rule="evenodd" fill="#BA6330" d="M109.554,313.946c-0.065-1.769,0.233-3.255-2.352-4.105
		c-11.338-3.729-22.988-5.479-34.83-5.735c-4.258-0.092-8.547,1.22-12.822,1.891c-3.662-3.335-7.324-6.669-10.986-10.003
		c0.57-2.841,2.943-2.456,4.674-2.139c8.771,1.606,17.729,2.392,26.286,4.884c5.449,1.588,10.999,2.525,16.514,3.434
		c5.728,0.942,10.734,3.315,15.747,5.827c2.96,1.484,5,3.623,1.774,6.897C112.046,315.334,110.893,314.249,109.554,313.946z"/>
	<path fill-rule="evenodd" clip-rule="evenodd" fill="#AD5F30" d="M113.561,314.896c1.308-3.324-0.044-4.658-3.2-6.266
		c-8.269-4.211-17.35-4.725-25.965-7.116c-7.312-2.03-14.789-3.112-22.112-4.772c-4.221-0.958-9.029-3.618-13.719-0.749
		c-1.342-0.669-2.34-1.687-3.041-3.006c-4.939-3.228-4.939-3.228-4.325-6.53c2.646-0.335,4.713,1.294,7.039,2.06
		c10.854,3.57,21.878,6.321,33.363,6.791c11.327,2.018,22.183,5.669,32.97,9.563c0.901,1.59,1.999,2.973,3.693,3.835
		c1.659,0.843,3.132,1.903,3,4.082c-0.142,2.343-2.094,2.623-3.745,3.237C116.047,316.188,114.693,315.931,113.561,314.896z"/>
	<path fill-rule="evenodd" clip-rule="evenodd" fill="#D96E30" d="M40.52,287.008c1.669,1.993,3.337,3.986,5.005,5.979
		c-4.112,0.077-6.485-2.669-8.647-5.546c-0.983-1.309-1.759-2.723-3.306-3.456c0.503-2.706-1.388-6.004,1.977-8.004
		c1.815,2.117,1.423,5.256,3.392,7.301C39.59,284.471,40.464,285.567,40.52,287.008z"/>
	<path fill-rule="evenodd" clip-rule="evenodd" fill="#E27131" d="M68.567,264.988c0-0.667,0-1.333,0-2c1,0,2-0.001,2.999-0.001
		c1.499-0.259,2.873-0.285,3.16,1.706C72.767,266.777,70.702,266.613,68.567,264.988z"/>
	<path fill-rule="evenodd" clip-rule="evenodd" fill="#E27230" d="M74.567,263.988c-1-0.334-2.001-0.668-3.001-1.001
		c1.012-1.621,2.098-2.947,4-0.999c0,0.667,0,1.333,0,2C75.233,264.299,74.9,264.299,74.567,263.988z"/>
	<path fill-rule="evenodd" clip-rule="evenodd" fill="#FEFEFE" d="M38.537,284.093c-2.66-2.09-3.194-4.964-2.988-8.111
		c0.7-0.903,1.4-1.808,2.1-2.711c4.661-3.906,10.58-3.738,16.041-4.511c24.804-3.508,49.671-6.567,74.39-10.663
		c7.786-1.29,15.495-1.095,23.209,0.588c4.385,0.955,8.824,1.671,13.302,2.097c40.212,5.858,80.414,11.789,120.607,17.772
		c19.914,2.965,39.88,5.574,59.745,8.865c1.482,0.246,2.994,0.148,4.48,0.348c11.691,1.646,23.293,3.908,35.045,5.155
		c4.742,0.827,9.546,1.268,14.268,2.18c1.99,0.385,4.4,0.107,5.653,2.377c0.101,0.837,0.202,1.673,0.302,2.511
		c1.565,3.055-0.251,4.954-2.301,6.777c-5.784,3.183-11.808,5.906-17.636,9.012c-6.785,3.229-13.459,6.677-20.149,10.101
		c-18.433,9.126-36.99,18.028-55.097,27.759c-8.203,4.408-15.81,6.186-24.369,2.178c-10.395-3.211-21.056-5.471-31.415-8.81
		c-2.223-0.717-4.313-1.609-6.185-3.002c-8.663-2.546-17.326-5.093-25.988-7.639c-10.238-2.827-20.477-5.655-30.715-8.481
		c-9.663-2.254-19.3-4.604-28.814-7.433c-14.227-3.931-28.506-7.672-42.617-12.012c-1.754-0.535-3.518-1.059-4.797-2.504
		c-10.916-3.627-21.925-6.931-33.115-9.611c-10.092-0.878-19.515-4.504-29.156-7.197C47.626,287.811,42.577,287.29,38.537,284.093z"
		/>
	<path fill-rule="evenodd" clip-rule="evenodd" fill="#D96E30" d="M164.493,261.956c-4.036,0.745-8.039-0.321-11.725-1.331
		c-10.158-2.784-20.114-1.942-30.278-0.339c-17.885,2.822-35.859,5.077-53.75,7.86c-10.376,1.615-20.934,2.177-31.092,5.124
		c4.645-5.848,11.63-5.148,17.902-6.204c4.328-0.729,8.764-0.818,13.017-2.078c2.002-0.324,4.247,0.813,6-1c0.333,0,0.666,0,0.999,0
		c12.071-0.491,23.882-3.073,35.844-4.443c10.323-1.183,20.477-3.733,30.969-3.591c6.447,0.088,7.069-0.836,5.54-7.311
		c-1.519-6.432,0.589-12.521,1.881-18.613c1.707-8.054,3.069-16.209,5.754-24.035c2.471-4.521,2.203-9.778,3.889-14.526
		c0.598-1.682,0.522-3.612,2.611-4.34c1.296,2.283,0.387,4.547-0.103,6.796c-3.333,15.297-6.701,30.587-10.205,45.845
		c-0.764,3.328-0.729,6.264,1.998,8.682c1.326,1.731,2.748,3.382,4.345,4.875C160.069,256.315,164.32,257.628,164.493,261.956z"/>
	<path fill-rule="evenodd" clip-rule="evenodd" fill="#FEFEFE" d="M153.527,249.915c-3.737-2.151-4.244-5.025-3.259-9.236
		c4.162-17.796,7.895-35.692,11.786-53.551c2.862-12.994,5.678-25.998,8.627-38.972c0.471-2.07,1.542-4.004,2.336-6
		c0.87-0.619,1.74-1.239,2.609-1.858c5.071-3.507,11.081-3.354,16.745-3.676c14.245-0.808,28.469-1.787,42.685-2.982
		c4.468-0.376,8.988-0.13,13.431-0.962c14.881-0.802,29.748-1.753,44.613-2.863c14.546-1.087,29.138-1.91,43.711-2.823
		c25.663-1.606,51.307-3.489,76.954-5.321c7.943-0.566,15.888-1.171,23.84-1.585c4.144-0.217,8.021,0.653,9.817,5.172
		c1.127,7.94-1.87,15.359-3.124,22.978c-3.118,18.943-7.478,37.662-10.737,56.585c-4.565,21.629-8.483,43.384-12.612,65.097
		c-0.715,3.761-1.842,7.425-2.353,11.228c-0.88,3.087-3.083,4.248-6.114,4.202c-9.545-0.975-19.053-2.254-28.53-3.775
		c-14.507-1.26-28.871-3.658-43.307-5.473c-14.607-1.835-29.215-3.671-43.799-5.682c-6.062-0.836-12.083-1.965-18.201-2.363
		c-16.532-2.522-33.165-4.274-49.724-6.587c-22.833-3.188-45.737-5.837-68.589-8.886
		C157.755,252.236,155.505,251.551,153.527,249.915z"/>
	<path fill-rule="evenodd" clip-rule="evenodd" fill="#ED7D3B" d="M199.551,89.96c0.004,24.258-20.87,45.063-45.194,45.044
		c-23.914-0.019-44.791-20.964-44.795-44.944c-0.004-24.259,20.869-45.063,45.194-45.044
		C178.669,45.033,199.547,65.98,199.551,89.96z"/>
	<path fill-rule="evenodd" clip-rule="evenodd" fill="#DD7436" d="M248.556,133.96c-8.288,1.713-16.742,1.557-25.124,2.186
		c-14.504,1.087-29.021,1.99-43.527,3.046c-1.446,0.105-2.854,0.725-4.279,1.105c0.373-1.802,1.918-1.961,3.295-2.569
		c6.58-2.908,13.627-3.63,20.569-3.322c3.625,0.16,6.534-2.524,10.059-1.401c3.867,2.526,7.764,0.088,11.596-0.108
		c11.635-0.598,23.232-2.125,34.867-2.431c7.551-0.198,14.981-1.647,22.528-1.461c0.333,0.334,0.666,0.667,0.999,1
		c0.126,2.014-1.429,1.392-2.418,1.466C267.59,132.19,258.1,133.374,248.556,133.96z"/>
	<path fill-rule="evenodd" clip-rule="evenodd" fill="#D96E30" d="M248.556,133.96c5.018-2.011,10.419-0.624,15.592-1.844
		c5.018-1.183,10.253-1.445,15.392-2.112c10.689-0.945,21.379-1.876,32.066-2.841c5.439-0.491,10.89-0.421,16.356-0.947
		c13.005-1.255,26.117-1.347,39.162-2.26c15.654-1.096,31.276-2.655,46.926-3.815c8.092-0.6,16.218-1.066,24.327-1.048
		c8.104,0.02,12.815,4.313,14.145,11.907c-0.662-0.343-1.324-0.685-1.986-1.026c-1.054-0.116-1.718-0.85-2.424-1.52
		c-0.67-0.716-0.937-1.676-1.488-2.465c-1.856-3.689-4.795-5.21-8.938-4.819c-7.729,0.729-15.469,1.361-23.213,1.911
		c-19.305,1.372-38.612,2.72-57.923,3.993c-21.474,1.418-42.962,2.618-64.427,4.156C277.607,132.27,263.142,134.035,248.556,133.96z
		"/>
	<path fill-rule="evenodd" clip-rule="evenodd" fill="#B66530" d="M404.389,297.479c-6.645-1.058-13.29-2.115-19.935-3.173
		c-5.255-1.753-10.819-2.234-16.091-3.94c-1.906-0.617-4.419-0.84-4.104-3.405c0.321-2.613,3.032-2.498,4.846-2.228
		c9.987,1.492,20.115,0.226,30.11,1.824c5.204,0.832,10.55,0.686,15.691-0.98c0.64-0.343,1.244-0.753,1.865-1.123
		c1.968-1.047,3.949-2.086,4.214-4.685c0.121-0.478,0.285-0.93,0.47-1.384c3.132-5.95,3.91-12.623,5.418-18.997
		c2.047-8.657,3.669-17.452,4.837-26.309c0.283-2.146,0.307-4.291,0.579-6.416c0.189-1.479-0.321-3.561,2.232-3.67
		c0.431,0.805,1.175,0.98,1.999,1.001c-0.979,8.183-1.644,16.42-3.049,24.529c-0.924,5.335-1.701,10.868-4.659,15.639
		c-0.625,1.009-1.371,1.897-1.268,3.14c0.435,5.267-2.189,9.749-3.883,14.414c-2.29,6.306-7.62,9.354-14.208,8.77
		c-1.95-0.173-6.129,0.886-8.454,2.167C401.181,294.912,405.133,294.599,404.389,297.479z"/>
	<path fill-rule="evenodd" clip-rule="evenodd" fill="#B16330" d="M401.53,306.037c1.727-1.664,3.057-3.536,3.161-6.048
		c3.214,1.984,2.064,4.722,0.994,7.176c-1.917,4.398-5.758,6.524-10.157,7.817c-3.663,2.081-7.184,4.454-11.342,5.517
		c-0.475-0.151-0.794-0.458-0.936-0.941c2.109-3.813,6.06-5.269,9.5-7.353C395.821,310.345,399.198,308.941,401.53,306.037z"/>
	<path fill-rule="evenodd" clip-rule="evenodd" fill="#B46330" d="M383.529,319.982c4-1.666,8-3.333,11.999-5
		c-3.536,3.813-8.114,5.692-12.999,7c-0.076-0.203-0.151-0.408-0.227-0.613C382.456,320.681,382.847,320.202,383.529,319.982z"/>
	<path fill-rule="evenodd" clip-rule="evenodd" fill="#B46330" d="M379.529,324.981c-0.667,0-1.334-0.001-2.001-0.001
		c0.567-2.832,2.098-4.058,5-3l0.001,0.002C381.877,323.331,380.876,324.329,379.529,324.981z"/>
	<path fill-rule="evenodd" clip-rule="evenodd" fill="#BD6830" d="M351.578,461.888c0.015-1.057,0.274-2.152,1.429-2.257
		c0.868-0.079,1.361,0.803,1.393,1.716c0.039,1.117-0.505,2.041-1.557,2.207C351.796,463.719,351.598,462.76,351.578,461.888z"/>
	<path fill-rule="evenodd" clip-rule="evenodd" fill="#BD6830" d="M439.521,206.995c-1.692-1.84,0-2.832,1-3.999
		C440.527,204.415,441.936,206.183,439.521,206.995z"/>
	<path fill-rule="evenodd" clip-rule="evenodd" fill="#BD6830" d="M441.521,194.997c0.033-1.1-0.178-2.28,0.998-3
		C444.308,193.703,442.594,194.243,441.521,194.997z"/>
	<path fill-rule="evenodd" clip-rule="evenodd" fill="#B16330" d="M382.528,321.98c-2.134,0.22-3.516,1.695-5,3
		c-1.972,1.7-4.474,2.766-6,4.999c-2.667,0.221-4.212,3.059-6.998,3c1.352-4.993,13.71-13.45,18.997-12.999l0.002,0.002
		C383.195,320.649,382.862,321.315,382.528,321.98z"/>
	<path fill-rule="evenodd" clip-rule="evenodd" fill="#A65F30" d="M383.527,319.98c-7.12,3.182-13.879,6.892-18.997,12.999
		c-2.064,1.368-4.024,2.938-6.211,4.067c-7.795,4.023-8.518,11.474-8.38,18.719c0.054,2.805,0.204,5.661-0.514,8.206
		c-2.698,9.578-4.024,19.63-9.89,28.164c-3.193,4.646-8.391,6.365-12.636,9.337c-10.274,7.195-20.984,13.842-32.432,19.095
		c-6.27,2.876-11.768,7.521-18.923,8.396c-1.33-1.001-2.661-2.002-3.992-3.004c-0.338-0.663-0.676-1.326-1.014-1.99
		c10.145-2.696,19.482-7.314,28.631-12.293c9.611-5.229,19.042-10.779,28.373-16.506c6.374-3.913,11.021-9.033,12.817-16.393
		c2.267-9.292,5.564-18.506,2.665-28.289c-0.07-1.918-0.091-3.84-0.141-5.763c1.17-3.655,3.737-5.966,6.875-8.104
		c11.316-7.713,22.862-15.044,34.683-21.949c5.696-2.878,11.393-5.757,17.089-8.636c-0.972,4.028-4.651,5.248-7.653,6.879
		C390.157,314.934,386.672,317.177,383.527,319.98z"/>
	<path fill-rule="evenodd" clip-rule="evenodd" fill="#FEFEFE" d="M343.485,345.085c0.979,1.588,1.046,3.248,0.391,4.966
		c0.881,4.237-0.607,8.228-1.303,12.298c-1.039,6.071-2.84,11.97-4.056,18.003c-0.705,3.498-2.217,6.616-5.09,8.914
		c-13.693,7.385-26.437,16.488-40.847,22.605c-6.699,2.845-12.48,7.628-19.684,9.449c-2.451,0.76-4.557,0.224-6.293-1.686
		c-2.917-2.102-3.32-4.567-2.337-8.128c3.411-12.34,8.733-24.008,12.37-36.254c1.088-3.818,0.348-8.413,4.622-10.882
		c2.357-0.197,4.529,0.663,6.76,1.189c11.192,5.502,19.397-1.895,28.062-6.712c7.704-4.284,15.145-9.046,22.885-13.28
		C340.347,344.813,341.803,343.562,343.485,345.085z"/>
	<path fill-rule="evenodd" clip-rule="evenodd" fill="#9C5B30" d="M332.545,388.971c3.534-3.215,4.372-7.519,5.264-11.973
		c1.809-9.025,4.021-17.97,6.067-26.947c1.762,3.014,2.043,6.363,1.611,9.659c-1.948,14.86-3.661,29.851-19.135,37.984
		c-5.705,2.998-11.188,6.418-16.775,9.643c-9.798,5.653-19.771,10.956-30.265,15.228c-2.818,1.146-5.733,1.662-8.774,1.405
		c-1.724-1.069-3.276-2.296-3.934-4.335c2.023,0.078,3.873,1.72,6.021,0.669c4.806,0.057,9.163-1.918,13.195-3.96
		c15.249-7.721,29.953-16.445,44.529-25.371C331.192,390.456,331.97,389.81,332.545,388.971z"/>
	<path fill-rule="evenodd" clip-rule="evenodd" fill="#B36430" d="M281.532,364.946c-3.209,2.686-2.699,7.139-4.896,10.307
		c0.094-1.979-0.038-3.999,0.327-5.927c0.98-5.18-1.798-9.924-6.927-11.276c-4.146-1.093-8.326-2.056-12.491-3.075
		c-0.668-0.999-1.336-1.996-2.004-2.995c1.744-1.633,3.705-0.921,5.604-0.465c5.785,1.388,11.395,3.35,16.763,5.869
		C280.919,358.798,283.94,360.705,281.532,364.946z"/>
	<path fill-rule="evenodd" clip-rule="evenodd" fill="#975830" d="M114.606,305.937c1.651,0.383,3.303,0.768,4.954,1.151
		c7.892,5.613,17.006,7.837,26.338,9.338c5.542,0.892,10.924,2.694,16.583,2.899c9.451,2.852,18.902,5.705,28.354,8.559
		c-6.385,0.152-12.187-2.817-18.421-3.445c-4.842-0.488-9.547-2.032-14.534-1.528c-2.184,0.222-3.549,0.636-3.314,3.115
		c-12.484-2.83-24.82-6.209-37.045-10.001c3.263-2.521,4.842-4.734-0.633-6.592C115.821,309.07,113.58,308.24,114.606,305.937z"/>
	<path fill-rule="evenodd" clip-rule="evenodd" fill="#A86030" d="M281.532,364.946c0.275-2.53-0.294-4.805-2.81-5.825
		c-7.514-3.049-14.935-6.452-23.181-7.142c-0.665-0.334-1.33-0.669-1.996-1.004c-0.668-0.999-1.336-1.997-2.003-2.996
		c4.055-1.969,7.75,0.393,11.375,1.348c6.347,1.672,12.538,4.006,18.675,6.394c2.487,0.967,4.52,2.728,6.524,4.447
		c2.819,2.416,2.821,4.691-0.55,6.641C285.555,366.188,283.543,365.566,281.532,364.946z"/>
	<path fill-rule="evenodd" clip-rule="evenodd" fill="#9E5C30" d="M287.567,366.809c1.87-3.8-0.432-8.434-6.26-10.096
		c-9.945-2.836-19.156-8.205-29.765-8.733c-0.666-0.334-1.331-0.669-1.996-1.004c-0.669-0.991-1.339-1.98-2.008-2.972
		c12.713,3.479,25.576,6.442,37.986,10.972c8.041,4.084,16.045,4.781,24.061-0.119c2.57-1.571,5.51-2.36,8.305-3.403
		c10.718-3.999,19.76-10.938,29.496-16.644c5.704-3.343,11.981-5.741,17.057-10.141c6.482-3.698,13.143-7.041,19.999-9.996
		c-5.828,5.007-12.878,8.268-18.878,12.94c-7.4,5.763-16.985,8.81-22.078,17.472c-9.393,3.989-17.761,9.839-26.67,14.708
		c-4.451,2.432-8.802,5.06-13.106,7.746C298.113,371.033,292.904,367.936,287.567,366.809z"/>
	<path fill-rule="evenodd" clip-rule="evenodd" fill="#B16330" d="M434.521,222.993c-2.309,3.402-1.181,7.44-1.6,11.079
		c-1.413,12.257-4.929,24.07-6.984,36.179c-0.54,3.178-1.396,7.21-4.413,9.736c-0.714-0.628-0.966-1.455-1.033-2.365
		c2.131-11.777,6.276-23.119,7.896-34.998c3.031-22.223,6.815-44.318,10.619-66.416c1.973-11.464,4.292-22.854,6.951-34.164
		c1.097-4.67,0.394-9.635,2.579-14.072c0.667,0.668,1.333,1.335,2,2.002c0.491,9.97-2.896,19.326-5.237,28.72
		c-3.377,13.553-3.593,27.557-6.915,41.021C436.483,207.417,436.884,215.421,434.521,222.993z"/>
	<path fill-rule="evenodd" clip-rule="evenodd" fill="#A45C30" d="M38.537,284.093c14.318,4.078,28.636,8.154,42.955,12.231
		c-5.381,1.473-10.343-1.029-15.47-1.759c-8.836-1.258-17.269-4.129-25.5-7.558C39.259,286.444,38.577,285.487,38.537,284.093z"/>
	<path fill-rule="evenodd" clip-rule="evenodd" fill="#AC5F30" d="M421.523,277.986c0,0.667,0.001,1.334,0.001,2.001v-0.001
		c-0.761,2.125-2.061,3.817-4,4.999c-0.333,0.333-0.667,0.667-1,1c-5.19,2.45-10.761,1.911-16.095,1.355
		c-22.413-2.332-44.888-3.682-67.376-4.913c-0.333-0.019-0.663,0.04-2.139,0.381c6.189,0.467,10.799,2.836,15.846,3.562
		c1.46,0.21,3.09,0.489,2.781,2.662c-11.406-0.507-22.56-2.978-33.848-4.41c-14.895-1.89-29.707-4.415-44.566-6.59
		c-16.662-2.438-33.341-4.761-50.004-7.188c-17.638-2.568-35.264-5.217-52.904-7.769c-1.331-0.192-2.625-0.265-3.725-1.12
		c-2.33-2.646-4.659-5.294-6.988-7.942c0.928-0.954,2.067-0.921,3.24-0.671c20.154,4.301,40.688,5.508,61.104,7.771
		c15.27,1.693,30.629,2.795,45.778,5.535c7.757,2.36,15.775,3.665,23.594,5.787c2.398,0.65,4.908,0.983,7.389,1.185
		c15.637,1.269,31.252,2.626,46.835,4.568c14.594,1.818,29.314,2.692,43.964,4.073c5.738,0.54,11.537,1.383,17.258,2.406
		c2.02,0.36,3.961,0.505,5.83-0.517c2.488,0.227,4.227-0.744,5.056-3.166c0.82-1.256,0.611-3.312,2.75-3.546
		C420.781,277.463,421.184,277.653,421.523,277.986z"/>
	<path fill-rule="evenodd" clip-rule="evenodd" fill="#B16330" d="M349.541,289.032c-5.854-2.237-11.901-3.848-18.077-4.759
		c-1.629-0.24-3.287-0.061-3.158-1.924c0.113-1.631,2.02-1.416,3.294-1.341c13.335,0.785,26.7,1.022,39.982,2.75
		c8.032,1.046,16.167,1.293,24.207,2.292c6.948,0.864,13.826,1.563,20.734-0.065c-6.083,3.594-12.681,2.456-19.088,1.714
		c-5.289-0.612-10.572-0.993-15.835-0.652c-4.703,0.304-9.164-1.372-13.805-1.046c-1.063,0.074-2.713-0.412-2.717,1.268
		c-0.003,1.342,1.45,1.466,2.629,1.723c5.743,1.249,11.515,2.44,16.747,5.314C372.743,293.031,361.065,291.542,349.541,289.032z"/>
	<path fill-rule="evenodd" clip-rule="evenodd" fill="#945932" d="M364.443,324.669c-1.601,2.876-4.417,4.345-7.093,5.867
		c-9.58,5.454-18.743,11.613-28.274,17.098c-8.21,4.726-17.173,8.211-25.993,11.775c-4.146,1.675-14.41-1.418-17.558-4.434
		c0.499-0.001,1.084-0.177,1.485,0.021c7.997,3.953,14.886,1.375,22.273-2.546C327.462,342.801,346.03,333.882,364.443,324.669z"/>
	<path fill-rule="evenodd" clip-rule="evenodd" fill="#8F5530" d="M162.481,319.325c-3.122,1.943-6.212-0.063-9.105-0.519
		c-10.917-1.72-22.281-2.239-31.7-9.236c-0.928-0.689-2.081-1.076-2.116-2.482C133.868,311.168,148.174,315.246,162.481,319.325z"/>
	<path fill-rule="evenodd" clip-rule="evenodd" fill="#A25B30" d="M267.542,267.986c-8.258-1.134-16.487-2.865-24.78-3.266
		c-13.584-0.656-26.928-3.279-40.527-3.967c-12.75-0.645-25.407-3.141-38.104-4.842c-2.294-0.308-4.119-2.3-6.625-1.898
		c-1.676-1.026-3.079-2.318-3.979-4.098c12.209,1.641,24.414,3.32,36.63,4.911c18.941,2.467,37.895,4.843,56.835,7.313
		c9.301,1.212,18.584,2.563,27.882,3.802c1.303,0.174,2.679-0.069,3.724,1.007c0.607,1.78,4.662-1.285,3.733,2.662
		c-1.774,2.029-3.625,0.521-5.456,0.132C273.78,269.084,271.033,266.553,267.542,267.986z"/>
	<path fill-rule="evenodd" clip-rule="evenodd" fill="#A95E30" d="M421.523,277.986c-0.333,0-0.667,0-1,0
		c-1.876-5.013,0.314-9.776,1.47-14.358c4.896-19.407,7.375-39.21,10.427-58.923c1.306-12.14,4.409-23.952,6.501-35.947
		c2.489-14.271,6.071-28.344,7.702-42.768c0.637,0.66,1.274,1.321,1.912,1.982c0.617,13.153-4.662,25.302-6.468,38.032
		c-2.828,19.936-7.321,39.59-9.626,59.616C430.396,243.387,426.128,260.731,421.523,277.986z"/>
	<path fill-rule="evenodd" clip-rule="evenodd" fill="#A45E30" d="M267.542,267.986c2.796-2.403,5.32-0.07,7.924,0.493
		c2.346,0.509,4.568,2.327,7.075,0.508c0.252,0.054,0.504,0.107,0.757,0.158c3.314,1.055,6.768,0.138,10.122,0.721
		c20.86,3.865,42.041,5.035,63.055,7.575c9.302,1.125,18.511,3.311,27.978,2.888c9.349,1.274,18.698,2.55,28.047,3.823
		c-1.194,2.244-3.334,1.942-5.278,1.799c-3.946-0.292-7.958-0.405-11.801-1.241c-7.809-1.698-15.755-1.887-23.643-2.698
		c-7.039-0.725-14.097-1.602-21.105-2.181c-11.931-0.987-23.737-2.915-35.659-3.871c-9.309-0.746-18.554-1.162-27.853-3.389
		C280.696,271.023,274.236,268.797,267.542,267.986z"/>
	<path fill-rule="evenodd" clip-rule="evenodd" fill="#9C5B30" d="M384.451,280.329c-4.789,2.078-9.515-0.067-14.192-0.484
		c-10.862-0.967-21.767-1.867-32.557-3.177c-15.052-1.826-30.403-1.55-45.163-5.681c-3.156-1.551-7.11,0.889-9.999-2
		c-0.676-1.911-3.43,0.189-3.94-2.039c9.945-0.08,19.626,2.264,29.451,3.307c13.922,1.478,27.764,3.701,41.646,5.554
		C361.277,277.354,372.866,278.825,384.451,280.329z"/>
	<path fill-rule="evenodd" clip-rule="evenodd" fill="#A35D30" d="M432.42,204.705c0.345,7.791-1.935,15.322-2.296,23.039
		c-0.807,17.208-7.678,33.251-9.601,50.242c-1.569,0.427-1.753,2.223-2.968,3c1.668-9.385,3.25-18.787,5.024-28.152
		c2.905-15.341,5.94-30.658,8.898-45.989C431.633,206.036,431.57,205.185,432.42,204.705z"/>
	<path fill-rule="evenodd" clip-rule="evenodd" fill="#B16330" d="M417.523,284.985c1.361-1.645,1.943-3.911,4-4.999
		C422.497,283.498,420.001,284.235,417.523,284.985z"/>
	<path fill-rule="evenodd" clip-rule="evenodd" fill="#965932" d="M332.545,388.971c0.875,1.831-0.82,2.226-1.747,2.834
		c-14.49,9.511-29.568,18.041-45.016,25.851c-3.856,1.95-8.265,4.371-13.157,2.648c16.333-7.495,32.516-15.279,47.736-24.903
		C324.258,392.937,328.273,390.716,332.545,388.971z"/>
	<path fill-rule="evenodd" clip-rule="evenodd" fill="#A25B30" d="M282.541,268.987c3.116,1.753,6.944-0.06,9.999,2
		C289.287,269.915,285.155,273.247,282.541,268.987z"/>
	<rect x="533.61" y="111.821" fill-rule="evenodd" clip-rule="evenodd" fill="none" width="2361.637" height="314.333"/>
	
		<text transform="matrix(1 0 0 1 533.6099 371.5176)" fill="#FFFFFF" font-family="'Montserrat-Medium'" font-size="350" letter-spacing="-21">Smoothbench</text>
</g>
</svg>
